<?xml version="1.0" encoding="utf-8"?>
<!-- Generator: Adobe Illustrator 22.1.0, SVG Export Plug-In . SVG Version: 6.00 Build 0)  -->
<svg version="1.1" id="Layer_1" xmlns="http://www.w3.org/2000/svg" xmlns:xlink="http://www.w3.org/1999/xlink" x="0px" y="0px"
	 viewBox="0 0 680 55.3" style="enable-background:new 0 0 680 55.3;" xml:space="preserve">
<style type="text/css">
	.st0{fill:#27A5D2;}
	.st1{fill:#666666;}
	.st2{fill:#FFFFFF;}
</style>
<title>X4 Tech Logo (light)</title>
<g id="Layer_2_1_">
	<g id="Layer_1-2">
		<path class="st0" d="M38.7,1.2h11.2v0.5L31.6,27.9l18.9,27v0.3H39L25.2,34.9L11.4,55.2H0v-0.3l18.7-27L0.5,1.7V1.2h11.2l13.5,20.1
			L38.7,1.2z"/>
		<path class="st0" d="M93,1.3v33.8h6.3v9.8H93v10.3H82.9V44.9H54.1l-0.9-10.3L77.5,1.3H93z M82.9,35.1v-25l-18.3,25H82.9z"/>
	</g>
</g>
<path class="st1" d="M112.2,26.7"/>
<g>
	<path class="st2" d="M126.6,5.9h-17.3V1.8h39.2v4.1h-17.3v48.8h-4.6V5.9z"/>
	<path class="st2" d="M157.9,1.8h33.6v4.1h-29.1v19.6h28.5v4.1h-28.5v21h29.1v4.1h-33.6V1.8z"/>
	<path class="st2" d="M200.7,28.3c0-16.3,11.8-27.4,26.7-27.4c8.6,0,14.9,3.7,19.4,9.4l-3.8,2.5c-3.3-4.6-9.1-7.7-15.6-7.7
		c-12.3,0-21.9,9.4-21.9,23.3c0,13.7,9.6,23.3,21.9,23.3c6.5,0,12.3-3.1,15.6-7.7l3.8,2.4c-4.7,5.8-10.9,9.4-19.4,9.4
		C212.5,55.7,200.7,44.6,200.7,28.3z"/>
	<path class="st2" d="M294.1,29.6h-33.6v25.2H256v-53h4.5v23.7h33.6V1.8h4.6v52.9h-4.6V29.6z"/>
	<path class="st2" d="M332.3,43.9c3.4,4,9,7.7,16.5,7.7c10.9,0,14-6,14-10.6c0-7.5-7.1-9.5-14.5-11.5c-8.3-2.3-17.2-4.7-17.2-14.4
		c0-8.7,7.8-14.1,17.4-14.1c7.9,0,13.8,2.8,17.9,7.5l-3,3.3c-3.8-4.6-9.2-6.7-15.2-6.7c-7.1,0-12.4,4-12.4,9.8
		c0,6.3,6.6,8.1,13.8,10c8.6,2.5,17.9,5.2,17.9,15.9c0,6.8-4.5,15-18.8,15c-8.7,0-15.3-3.5-19.4-8.4L332.3,43.9z"/>
	<path class="st2" d="M391.7,5.9h-17.3V1.8h39.2v4.1h-17.3v48.8h-4.6L391.7,5.9L391.7,5.9z"/>
	<path class="st2" d="M450.7,41.7h-28.2l-5.3,13h-5.1l21.7-52.9h5.6l21.7,52.9H456L450.7,41.7z M423.9,37.6h25.3L436.6,6.3
		L423.9,37.6z"/>
	<path class="st2" d="M468.9,1.8h33.6v4.1h-29.1v19.6h28.5v4.1h-28.5v25.1h-4.5V1.8z"/>
	<path class="st2" d="M511.9,1.8h33.6v4.1h-29.1v19.6h28.5v4.1h-28.5v25.1h-4.5L511.9,1.8L511.9,1.8z"/>
	<path class="st2" d="M554.9,1.8h4.5v52.9h-4.5V1.8z"/>
	<path class="st2" d="M577.1,9v45.7h-4.5V1.8h4.6l33.2,45.1V1.8h4.5v52.9h-4.4L577.1,9z"/>
	<path class="st2" d="M652.9,0.9c8.7,0,15.1,3.5,19.9,9l-3.4,2.5C665.7,8,659.6,5,652.9,5c-12.5,0-22.1,9.4-22.1,23.3
		c0,13.7,9.6,23.3,22.1,23.3c7.1,0,12.6-3.5,15.6-6.4V32.5h-20v-4H673V47c-4.7,5.2-11.7,8.8-20.1,8.8c-14.8,0-26.8-11.1-26.8-27.5
		S638.1,0.9,652.9,0.9z"/>
</g>
</svg>
